<svg width="128" height="128" viewBox="0 0 128 128" fill="none" xmlns="http://www.w3.org/2000/svg">
<rect width="128" height="128" fill="white"/>
<path d="M7 33.9704V28H45.9195V33.9704H36.7412V96.6598H38.7195C40.804 96.6779 42.8833 96.4441 44.9141 95.9632C46.5834 95.5764 48.2047 94.9979 49.7468 94.2385C51.2749 93.336 52.6722 92.2196 53.8981 90.9216C55.158 89.7096 56.3493 88.4249 57.4659 87.074C58.3956 85.8799 59.6604 84.2214 61.2605 82.0986H68.493C64.4713 89.8602 61.1307 96.5603 58.4064 102H16.0165V33.6387L7 33.9704Z" fill="black"/>
<path d="M50.7747 52.1376L60.3039 28H116.288C117.115 30.1823 118.637 33.9848 120.821 39.4075C123.004 44.8302 124.659 49.0956 125.817 52.1376H119.199C118.074 50.2199 117.214 48.8311 116.519 47.6077C115.825 46.3842 114.931 45.0616 113.806 43.2761C112.823 41.7859 111.717 40.3811 110.497 39.0768C109.451 37.9197 108.347 36.8161 107.189 35.7703C106.009 34.7412 104.653 33.9346 103.185 33.3897C101.822 32.8689 100.376 32.6 98.9168 32.5961V96.0482H108.049V102H68.3441V96.0482H77.7079V32.5961C76.4439 32.6037 75.1906 32.8274 74.0021 33.2574C72.8393 33.6936 71.7294 34.2592 70.6934 34.9437C69.4835 35.6958 68.3721 36.5955 67.3846 37.622C66.3963 38.6708 65.4683 39.7747 64.6052 40.9285C63.8111 41.9535 62.9178 43.1769 61.9913 44.6318C61.0649 46.0867 60.2708 47.3432 59.6752 48.4012L57.5575 52.1707L50.7747 52.1376Z" fill="black"/>
</svg>
